<svg width="38" height="38" viewBox="0 0 38 38" fill="none" xmlns="http://www.w3.org/2000/svg">
<path d="M16.625 7.125V0H21.375V7.125H16.625Z" fill="black"/>
<path d="M21.375 30.875V38H16.625V30.875H21.375Z" fill="black"/>
<path d="M26.125 19C26.125 22.935 22.935 26.125 19 26.125C15.065 26.125 11.875 22.935 11.875 19C11.875 15.065 15.065 11.875 19 11.875C22.935 11.875 26.125 15.065 26.125 19Z" fill="black"/>
<path d="M0 21.375H7.125V16.625H0V21.375Z" fill="black"/>
<path d="M38 16.625H30.875V21.375H38V16.625Z" fill="black"/>
<path d="M8.92371 12.2825L3.88558 7.24434L7.24434 3.88558L12.2825 8.92371L8.92371 12.2825Z" fill="black"/>
<path d="M29.0763 25.7175L34.1144 30.7556L30.7556 34.1144L25.7175 29.0763L29.0763 25.7175Z" fill="black"/>
<path d="M7.24434 34.1144L12.2825 29.0763L8.92371 25.7175L3.88558 30.7557L7.24434 34.1144Z" fill="black"/>
<path d="M30.7556 3.88561L25.7175 8.92374L29.0763 12.2825L34.1144 7.24436L30.7556 3.88561Z" fill="black"/>
</svg>
